<svg width="65.658" height="54.488" viewBox="0 0 65.658 54.488" xmlns="http://www.w3.org/2000/svg">
    <path d="M27.172 3.939c-1.951 0-3.535 1.618-3.535 3.61v3.611H42.02V7.55c0-1.993-1.584-3.611-3.536-3.611H27.172zM46.1 11.177V7.684A7.681 7.681 0 0 0 38.417 0H27.24a7.681 7.681 0 0 0-7.683 7.684v3.493H7.683A7.681 7.681 0 0 0 0 18.861v13.972a4.899 4.899 0 0 0 2.794 4.42v9.551a7.681 7.681 0 0 0 7.683 7.684H55.18a7.681 7.681 0 0 0 7.684-7.684v-9.55a4.899 4.899 0 0 0 2.794-4.421V18.86a7.681 7.681 0 0 0-7.684-7.684H46.1zm12.992 26.9H40.867v.692c0 2.678-2.187 4.85-4.906 4.85h-5.608c-2.72 0-4.906-2.172-4.906-4.85v-.693H7.222v9.009c0 1.912 1.57 3.464 3.505 3.464h44.86c1.935 0 3.505-1.552 3.505-3.464v-9.009zM25.494 33.48v-.707c0-2.732 2.174-4.95 4.877-4.95h5.572c2.703 0 4.877 2.218 4.877 4.95v.707H61.02c.39 0 .697-.317.697-.707v-14.14c0-1.951-1.56-3.535-3.483-3.535H8.079c-1.923 0-3.483 1.584-3.483 3.535v14.14c0 .39.307.707.697.707h20.201zm4.774-1.313a.719.719 0 0 0-.722.722v5.777c0 .399.318.722.722.722h5.778a.719.719 0 0 0 .722-.722V32.89a.719.719 0 0 0-.722-.722h-5.778z" fill="#153E7D" fill-rule="evenodd"/>
</svg>
