<svg width="55.049" height="54.181" viewBox="0 0 55.049 54.181" xmlns="http://www.w3.org/2000/svg">
    <g fill-rule="nonzero" fill="none">
        <path d="m44.727 47.169-2.06-6.089c-.72-2.125-2.558-3.694-4.798-4.096l-5.95-1.066v-.454a8.916 8.916 0 0 0 2.655-2.32h1.797c1.472 0 2.67-1.18 2.67-2.63V19.996C39.042 13.712 33.85 8.6 27.47 8.6c-6.381 0-11.573 5.112-11.573 11.396v6.135c0 1.69 1.22 3.104 2.839 3.434.5 2.52 2.098 4.651 4.283 5.9v.453l-5.95 1.066c-2.24.402-4.078 1.97-4.797 4.096l-.356 1.053-3.032-2.985a.869.869 0 0 1 0-1.24l3.516-3.462-6.6-6.5-3.974 3.914A6.049 6.049 0 0 0 0 36.199c0 1.639.648 3.179 1.825 4.338l12.031 11.847a6.241 6.241 0 0 0 4.407 1.797 6.214 6.214 0 0 0 4.378-1.771l4.336-3.912-1.352-1.33h19.102zm-7.466-16.655c0 .484-.4.877-.89.877h-.749a8.61 8.61 0 0 0 .58-1.826 3.558 3.558 0 0 0 1.06-.415v1.364zm-.89-2.873v-3.019c.53.304.89.863.89 1.51 0 .645-.36 1.205-.89 1.509zm-17.805 0a1.743 1.743 0 0 1-.89-1.51c0-.646.36-1.205.89-1.509v3.019zm0-5.892v1a3.562 3.562 0 0 0-.89.364v-3.117c0-5.317 4.393-9.643 9.793-9.643 5.399 0 9.792 4.326 9.792 9.643v3.117a3.529 3.529 0 0 0-.89-.363v-1.001h-.89a9.872 9.872 0 0 1-6.97-2.843L27.47 17.88l-1.043 1.026a9.872 9.872 0 0 1-6.97 2.843h-.89zm1.78 6.136v-4.417a11.626 11.626 0 0 0 7.123-3.115 11.621 11.621 0 0 0 7.121 3.115v4.417a6.878 6.878 0 0 1-.963 3.506H27.47v1.753h4.695a7.147 7.147 0 0 1-4.695 1.753c-3.927 0-7.122-3.146-7.122-7.012zm9.793 8.361v.041l-2.67 2.63-2.671-2.63v-.04a9.017 9.017 0 0 0 5.341 0zm-16.18 5.388a4.432 4.432 0 0 1 3.426-2.927l6.223-1.113 3.86 3.802 3.86-3.8 6.222 1.112a4.43 4.43 0 0 1 3.427 2.927l1.28 3.78H23.846l-3.468-3.413-3.853 3.431a.92.92 0 0 1-1.258 0L13.32 43.52l.638-1.885zM5.798 30.426l4.083 4.02-.967.952-4.083-4.02.967-.952zm15.61 20.72a4.464 4.464 0 0 1-3.147 1.282 4.462 4.462 0 0 1-3.148-1.284L3.082 39.298A4.32 4.32 0 0 1 1.779 36.2c0-1.171.463-2.272 1.303-3.1l.49-.482 4.082 4.02-.032.031a2.606 2.606 0 0 0 0 3.72l6.384 6.286c.505.496 1.175.77 1.889.77s1.384-.273 1.856-.74l.067-.059 4.101 4.039-.51.46zm1.825-1.648-4.092-4.03 1.176-1.046 4.085 4.022-1.169 1.054z" stroke="#0F3E7F" fill="#0F3E7F"/>
        <path d="M52.469 0H40.427a2.581 2.581 0 0 0-2.58 2.576v6.87a2.581 2.581 0 0 0 2.58 2.576h2.297l-.89 5.178 8.301-5.178h2.334a2.581 2.581 0 0 0 2.58-2.576v-6.87A2.581 2.581 0 0 0 52.47 0zm.86 9.446a.86.86 0 0 1-.86.858H49.64l-5.462 3.408.585-3.408h-4.337a.86.86 0 0 1-.86-.858v-6.87a.86.86 0 0 1 .86-.859h12.042a.86.86 0 0 1 .86.86v6.869z" fill="#0F3E7F"/>
        <path fill="#FE2312" d="M40.427 3.44h10.322v1.72H40.427zM40.427 6.88h6.881V8.6h-6.881z"/>
        <path fill="#0F3E7F" d="M49.028 6.88h1.72V8.6h-1.72z"/>
        <path d="M27.116 2.58c-11.482 0-21.372 7.965-23.944 19.076l-1.665-2.784L0 19.779l3.089 5.162 5.147-3.098-.905-1.512-2.381 1.433C7.44 11.6 16.554 4.343 27.116 4.343c2.308 0 4.586.343 6.77 1.022l.52-1.683a24.523 24.523 0 0 0-7.29-1.102zM54.189 19.363l-5.373-3.023-3.224 5.038 1.573.885 1.606-2.509a21.005 21.005 0 0 1 1.277 7.226c0 5.114-1.89 10.114-5.32 14.078l1.424 1.083c3.696-4.269 5.73-9.654 5.73-15.16 0-2.631-.452-5.2-1.333-7.66l2.696 1.517.944-1.475z" stroke="#0F3E7F" fill="#0F3E7F"/>
    </g>
</svg>
