<svg width="77.413" height="53.321" viewBox="0 0 77.413 53.321" xmlns="http://www.w3.org/2000/svg">
    <g fill="#0F3E7F" fill-rule="nonzero" stroke="#0F3E7F">
        <path d="M33.705 25.917v-3.34c0-.632-.506-1.144-1.13-1.144-.623 0-1.129.512-1.129 1.143v2.658H13.265V2.286h4.008V7.74c0 .632.505 1.144 1.129 1.144h7.907c.624 0 1.13-.512 1.13-1.144V2.286h4.007v14.955c0 .632.506 1.143 1.13 1.143.623 0 1.129-.511 1.129-1.143V14.09h13.913v2.131c0 .584.31 1.127.809 1.42a1.602 1.602 0 0 0 1.617 0l10.217-5.972a1.646 1.646 0 0 0 0-2.837L50.044 2.859a1.605 1.605 0 0 0-1.617 0 1.647 1.647 0 0 0-.81 1.419V6.41H33.706V1.603C33.705.72 32.994 0 32.12 0H1.584C.71 0 0 .72 0 1.603v24.314c0 .884.71 1.604 1.584 1.604H32.12c.873 0 1.584-.72 1.584-1.604zm0-17.221h14.553a1.63 1.63 0 0 0 1.618-1.638V5.4l8.295 4.848-8.295 4.848V13.44a1.63 1.63 0 0 0-1.618-1.638H33.705V8.696zM19.53 2.286h5.649v4.311H19.53v-4.31zm-8.525 22.948H2.258V2.286h8.748v22.948zM77.08 34.312l-6.15-8.069a1.118 1.118 0 0 0-.889-.442H38.734c-.352 0-.683.167-.895.451l-6.029 8.073a1.616 1.616 0 0 0-.157 1.682c.268.55.81.89 1.413.89h4.544v2.996h-9.595V37.76c0-.584-.308-1.127-.805-1.419a1.592 1.592 0 0 0-1.61 0l-10.172 5.971a1.648 1.648 0 0 0-.806 1.419c0 .583.309 1.127.806 1.419l10.171 5.971a1.59 1.59 0 0 0 1.611 0c.497-.292.805-.835.805-1.418v-2.132h2.178c.621 0 1.124-.512 1.124-1.144 0-.631-.503-1.143-1.124-1.143h-2.815c-.889 0-1.611.735-1.611 1.638v1.657l-8.258-4.848 8.258-4.848v1.657c0 .903.722 1.638 1.61 1.638h22.468v3.106H35.44c-.621 0-1.125.512-1.125 1.143 0 .632.504 1.143 1.125 1.143h2.17v4.147c0 .884.707 1.603 1.576 1.603H69.59c.87 0 1.577-.719 1.577-1.603v-7.864c0-.631-.503-1.143-1.124-1.143-.621 0-1.125.512-1.125 1.143v7.181h-8.709v-20.75l4.567 5.991c.297.39.763.622 1.247.622h2.895v1.621c0 .632.503 1.143 1.124 1.143.621 0 1.125-.511 1.125-1.143v-1.621h4.668c.607 0 1.15-.344 1.416-.898.267-.554.202-1.2-.17-1.688zm-42.66.3 4.872-6.525h17.526l-4.872 6.524H34.419zm23.54 16.423H39.858v-3.463h10.625c.888 0 1.61-.735 1.61-1.638V41.53c0-.903-.722-1.638-1.61-1.638H39.858v-2.994H52.28c.49 0 .96-.237 1.256-.634l4.425-5.925v20.696zm8.39-16.424-4.972-6.524h8.112l4.974 6.524H66.35z"/>
    </g>
</svg>
