<svg width="54.912" height="54.905" viewBox="0 0 54.912 54.905" xmlns="http://www.w3.org/2000/svg">
    <path d="M12.79 5.292c-.787 0-1.526.372-1.999.992l-4.998 6.623a2.43 2.43 0 0 0-.5 1.489v7.02c0 1.786 1.287 3.3 2.996 3.647.24.05.493.074.753.074 2.072 0 3.749-1.662 3.749-3.721v-1.24c0-1.365 1.12-2.48 2.5-2.48 1.379 0 2.498 1.115 2.498 2.48v1.24c0 2.059 1.678 3.721 3.75 3.721 2.071 0 3.749-1.662 3.749-3.721v-1.24c0-1.365 1.12-2.48 2.499-2.48 1.38 0 2.5 1.115 2.5 2.48v1.24c0 2.059 1.676 3.721 3.748 3.721s3.75-1.662 3.75-3.721v-1.24c0-1.365 1.119-2.48 2.499-2.48 1.38 0 2.499 1.115 2.499 2.48v1.24c0 2.059 1.677 3.721 3.749 3.721.26 0 .512-.025.752-.074 1.71-.348 2.997-1.86 2.997-3.647v-7.02a2.43 2.43 0 0 0-.5-1.489l-4.999-6.623a2.518 2.518 0 0 0-1.999-.992H12.791zm27.19 21.83a8.755 8.755 0 0 1-6.262 2.609 8.755 8.755 0 0 1-6.262-2.61 8.755 8.755 0 0 1-6.261 2.61 8.755 8.755 0 0 1-6.262-2.61 8.668 8.668 0 0 1-5.01 2.51v17.496a2.5 2.5 0 0 0 2.505 2.485h5.01v-7.455c0-4.126 3.363-7.456 7.513-7.456h5.01c4.15 0 7.513 3.33 7.513 7.456v7.455h5.01a2.5 2.5 0 0 0 2.504-2.485V29.632a8.668 8.668 0 0 1-5.009-2.51zm9.94 1.977a8.706 8.706 0 0 0 4.992-7.886V14.15a7.477 7.477 0 0 0-1.497-4.492l-4.992-6.663A7.459 7.459 0 0 0 42.433 0H12.48a7.459 7.459 0 0 0-5.99 2.995L1.498 9.658A7.477 7.477 0 0 0 0 14.15v7.063A8.706 8.706 0 0 0 4.992 29.1v18.319a7.482 7.482 0 0 0 7.488 7.486h29.952a7.482 7.482 0 0 0 7.488-7.486V29.099zM32.418 49.612v-7.441a2.485 2.485 0 0 0-2.48-2.481h-4.963a2.485 2.485 0 0 0-2.48 2.48v7.442h9.923z" fill="#0F3E7F" fill-rule="evenodd"/>
</svg>
