<svg width="53.329" height="53.321" viewBox="0 0 53.329 53.321" xmlns="http://www.w3.org/2000/svg">
    <g stroke="#0F3E7F" stroke-width="3" fill="none" fill-rule="evenodd" stroke-linecap="round" stroke-linejoin="round">
        <path d="m32.746 18.514-2.749-1.473a1.738 1.738 0 0 0-1.629 0l-9.06 4.857a1.574 1.574 0 0 0-.596.553M39.295 22.451a1.38 1.38 0 0 0-.5-.51l-2.307-1.36"/>
        <path d="m33.169 22.375 2.384-1.483-3.509-2.183-10.525 6.548M25.261 27.128l4.678-2.806M26.197 39.29l2.114 1.623c.214.165.453.247.692.247"/>
        <path d="m21.98 25.246-3.068-1.86c-.129.235-.2.505-.2.785v10.074c0 .56.285 1.078.747 1.358l2.995 1.816M29.003 28.999l-3.742-1.871"/>
        <path d="m8.859 14.32 4.167 2.626a.805.805 0 0 0 1.234-.68v-3.541h14.601c8.912 0 16.135 7.223 16.135 16.132h0c0 8.91-7.224 16.133-16.135 16.133H6.61c-.889 0-1.61.72-1.61 1.61v5.112c0 .889.721 1.61 1.61 1.61h22.252c13.513 0 24.468-10.953 24.468-24.465h0c0-13.51-10.955-24.464-24.468-24.464h-14.6V.806a.805.805 0 0 0-1.216-.693L.395 7.603a.805.805 0 0 0-.02 1.372l5.34 3.365"/>
        <path d="M29.003 28.376v11.849c.271 0 .542-.071.785-.214l8.723-5.126c.485-.286.784-.813.784-1.383V23.25c0-.285-.075-.56-.21-.798l-10.082 5.925zM25.261 31.806v-4.501l-3.742-2.048v4.502z"/>
    </g>
</svg>
