<svg width="65.371" height="54.181" viewBox="0 0 65.371 54.181" xmlns="http://www.w3.org/2000/svg">
    <path d="M28.857 5.3 11.12 9.163a3.57 3.57 0 0 0-2.49 2.081l-3.33 8.19h15.276L28.857 5.3zm1.767 4.712V49.47l-18.43-4.026c-1.612-.361-2.771-1.778-2.771-3.388V23.59h12.014c.763 0 1.47-.388 1.837-1.055l7.35-12.523zM5.566 23.6H2.09a2.05 2.05 0 0 1-1.724-.922 2.13 2.13 0 0 1-.223-1.955L4.62 9.496a7.697 7.697 0 0 1 5.452-4.636L31.017.168a8.457 8.457 0 0 1 3.337 0L55.3 4.86a7.697 7.697 0 0 1 5.451 4.636l4.478 11.227a2.13 2.13 0 0 1-.222 1.955 2.05 2.05 0 0 1-1.725.922h-3.476v18.572c0 3.575-2.504 6.703-5.98 7.485l-19.47 4.357a8.457 8.457 0 0 1-3.338 0l-19.47-4.357c-3.478-.782-5.98-3.91-5.98-7.485V23.6zm29.18 25.87 18.432-4.026c1.611-.361 2.77-1.778 2.77-3.388V23.59H43.934c-.763 0-1.47-.388-1.838-1.055l-7.35-12.523V49.47zM37.103 5.3 54.84 9.163a3.57 3.57 0 0 1 2.49 2.081l3.33 8.19H45.383L37.102 5.3z" fill="#0F3E7F" fill-rule="evenodd"/>
</svg>
