<svg width="45.588" height="52.461" viewBox="0 0 45.588 52.461" xmlns="http://www.w3.org/2000/svg">
    <g fill="#0F3E7F" fill-rule="nonzero" stroke="#0F3E7F" stroke-linejoin="round">
        <path d="M45.588 41.817c0-4.646-2.955-8.786-7.26-10.306l-7.514-2.704c-1.098-.253-2.448-1.267-2.87-2.196 3.376-2.957 5.656-8.448 5.825-12.588.59-.675.844-1.774.844-3.294 0-3.38-.507-5.66-1.52-7.35C31.152.253 27.268 0 22.793 0 18.32 0 14.52.253 12.495 3.295c-1.097 1.605-1.52 3.97-1.52 7.434 0 1.52.254 2.619.845 3.294.169 4.14 2.448 9.547 5.825 12.588-.338.845-1.773 1.943-2.87 2.196L7.26 31.511C2.955 33.03 0 37.255 0 41.817v10.644h45.588V41.817zM13.254 13.094c-.338-.253-.506-.76-.59-1.69 6.584-2.45 13.591-2.45 20.176 0-.084.845-.253 1.437-.591 1.69-.591.423-2.026.085-3.546-.422-2.87-.845-4.812-.93-4.812-.93h-2.28s-2.11.085-4.811.93c-1.52.507-2.955.93-3.546.422zm.676-8.786c1.35-2.112 4.052-2.534 8.864-2.534 4.812 0 7.513.422 8.948 2.534.76 1.183 1.098 2.873 1.182 5.323-6.669-2.366-13.591-2.366-20.26 0 .084-2.45.506-4.224 1.266-5.323zm-.338 10.645c1.097.084 2.448-.254 3.714-.592 1.267-.338 2.786-.76 4.306-.929h2.364c1.52.085 3.039.507 4.305.93 1.35.422 2.617.76 3.715.59-.591 5.154-4.559 12.166-9.202 12.166s-8.527-6.928-9.202-12.165zm9.202 13.854c1.35 0 2.617-.422 3.799-1.182.422.675 1.013 1.267 1.688 1.774l-1.688 1.943h-7.598l-1.689-1.859c.676-.507 1.267-1.098 1.689-1.774 1.182.676 2.448 1.098 3.799 1.098zM18.573 41.48c0-1.098.422-2.112 1.182-2.872l.675 2.872h4.728l.675-2.872c.76.76 1.182 1.858 1.182 2.872 0 1.436-.676 2.872-2.364 3.802l.591 5.406h-4.896l.59-5.406c-1.603-.845-2.363-2.366-2.363-3.802zm25.326 9.293h-6.754v-7.603h-1.688v7.603H26.93l-.506-4.647a5.804 5.804 0 0 0 2.28-4.646c0-2.112-1.014-4.308-3.969-5.66l-.928 3.97H21.78l-.929-3.97c-2.87 1.436-3.968 3.548-3.968 5.66 0 1.859.844 3.548 2.28 4.646l-.507 4.647h-8.526v-7.603H8.442v7.603H1.688v-8.955a9.38 9.38 0 0 1 6.163-8.786s7.767-2.788 7.936-2.788l2.364 2.788h9.286l2.364-2.788c.169.085 7.935 2.788 7.935 2.788 3.715 1.352 6.163 4.816 6.163 8.786v8.955z" stroke-width="2"/>
        <path d="M19.783 6.88c.516 0 .86-.344.86-.86 0-.172.947-.86 2.58-.86 1.635 0 2.581.688 2.581.86 0 .516.344.86.86.86.517 0 .86-.344.86-.86 0-1.462-1.892-2.58-4.3-2.58-2.409 0-4.3 1.118-4.3 2.58 0 .516.343.86.86.86z" stroke-width="2.5"/>
    </g>
</svg>
