<svg width="54.189" height="54.181" viewBox="0 0 54.189 54.181" xmlns="http://www.w3.org/2000/svg">
    <g fill="#0F3E7F" fill-rule="nonzero" stroke="#0F3E7F">
        <path d="M42.147 14.19a1.29 1.29 0 1 0 2.581 0 1.29 1.29 0 0 0-2.581 0zM45.981 27.37c0 1.36-.14 2.719-.417 4.036-.121.575.26 1.135.852 1.253a1.087 1.087 0 0 0 1.29-.828c.307-1.458.462-2.958.462-4.46 0-3.345-.747-6.563-2.22-9.565a1.108 1.108 0 0 0-1.457-.502 1.049 1.049 0 0 0-.517 1.416 19.478 19.478 0 0 1 2.007 8.65zM32.47 36.809h-1.075V23.393c0-.57-.481-1.032-1.075-1.032h-8.601c-.594 0-1.076.462-1.076 1.032v4.128c0 .57.482 1.032 1.076 1.032h1.075v8.256h-1.075c-.594 0-1.076.462-1.076 1.032v4.128c0 .57.482 1.032 1.076 1.032H32.47c.594 0 1.076-.462 1.076-1.032v-4.128c0-.57-.482-1.032-1.076-1.032zm-1.075 4.128h-8.601v-2.064h1.075c.594 0 1.075-.462 1.075-1.032v-10.32c0-.57-.481-1.032-1.075-1.032h-1.075v-2.064h6.45V37.84c0 .57.483 1.032 1.076 1.032h1.075v2.064zM27.525 19.78c2.37 0 4.3-1.929 4.3-4.3 0-2.37-1.93-4.3-4.3-4.3-2.372 0-4.301 1.93-4.301 4.3 0 2.371 1.93 4.3 4.3 4.3zm0-6.45c1.185 0 2.15.965 2.15 2.15 0 1.186-.965 2.15-2.15 2.15a2.153 2.153 0 0 1-2.15-2.15c0-1.185.964-2.15 2.15-2.15z"/>
        <path d="M27.095 0C12.49 0 0 12.466 0 27.09 0 32.087 1.432 37.4 3.846 41.418L.054 52.79a1.058 1.058 0 0 0 1.34 1.338l11.372-3.79c4.019 2.413 9.332 3.844 14.329 3.844 14.606 0 27.094-12.467 27.094-27.09C54.189 12.486 41.72 0 27.095 0zm0 52.065c-4.793 0-9.888-1.414-13.628-3.783a1.058 1.058 0 0 0-.901-.11L2.732 51.45l3.278-9.833c.1-.301.06-.632-.11-.9-2.369-3.74-3.783-8.834-3.783-13.626 0-13.538 11.438-24.975 24.978-24.975 13.539 0 24.977 11.437 24.977 24.975 0 13.537-11.438 24.974-24.977 24.974z"/>
    </g>
</svg>
