<svg width="36.126" height="56.761" viewBox="0 0 36.126 56.761" xmlns="http://www.w3.org/2000/svg">
    <path d="M32.63 39.023V5.913C32.63 2.647 30.02 0 26.803 0H5.827C2.609 0 0 2.647 0 5.913v42.57c0 3.266 2.609 5.913 5.827 5.913h7.33l2.4 2.082c.317.274.754.357 1.146.216a1.192 1.192 0 0 0 .37-2.014l-6.993-6.102a1.063 1.063 0 0 1-.303-1.182c.083-.27.273-.493.525-.615a1 1 0 0 1 .804-.06l4.836 1.763c.356.119.746.057 1.049-.166.323-.232.507-.615.49-1.017V31.928c0-.653.521-1.182 1.165-1.182.643 0 1.165.53 1.165 1.182v13.008c0 .653.522 1.183 1.165 1.183.644 0 1.166-.53 1.166-1.183v-4.73c0-.653.521-1.183 1.165-1.183s1.165.53 1.165 1.183v4.73c0 .653.522 1.183 1.166 1.183.643 0 1.165-.53 1.165-1.183V41.39c0-.654.522-1.183 1.166-1.183.643 0 1.165.53 1.165 1.183v3.547c0 .653.522 1.183 1.165 1.183.644 0 1.166-.53 1.166-1.183v-2.365c0-.653.521-1.182 1.165-1.182s1.165.529 1.165 1.182V55.58c0 .653.522 1.182 1.166 1.182.643 0 1.165-.529 1.165-1.182V42.57c0-1.96-1.565-3.548-3.496-3.548zM22.142 2.365v1.183c0 .653-.522 1.182-1.166 1.182h-9.322c-.644 0-1.166-.53-1.166-1.182V2.365h11.654zm-3.496 26.016a3.5 3.5 0 0 0-3.287 2.365h-5.01l-.875-7.095h13.682l-.874 7.095h-.35a3.5 3.5 0 0 0-3.286-2.365zm9.323 9.46a3.388 3.388 0 0 0-1.714.473 3.47 3.47 0 0 0-4.113-1.443v-3.76h1.165a1.171 1.171 0 0 0 1.165-1.04l1.026-8.42h.14c.643 0 1.165-.53 1.165-1.183s-.522-1.182-1.165-1.182h-2.914l-3.146-4.258a1.154 1.154 0 0 0-1.632-.236 1.194 1.194 0 0 0-.233 1.655l2.098 2.839h-6.992l2.098-2.839c.25-.338.302-.785.139-1.174a1.158 1.158 0 0 0-2.004-.245l-3.146 4.258H6.992c-.643 0-1.165.529-1.165 1.182 0 .653.522 1.183 1.165 1.183h.14l1.025 8.42a1.171 1.171 0 0 0 1.166 1.04h5.827v12.546l-3.357-1.182a3.358 3.358 0 0 0-4.004 1.553 3.465 3.465 0 0 0 .718 4.289l1.981 1.714H5.827c-1.931 0-3.496-1.588-3.496-3.547V5.913c0-1.96 1.565-3.548 3.496-3.548h2.33v1.183c0 1.959 1.566 3.547 3.497 3.547h9.322c1.931 0 3.496-1.588 3.496-3.547V2.365h2.331c1.931 0 3.496 1.588 3.496 3.548v32.85a3.468 3.468 0 0 0-2.33-.922z" fill="#0F3E7F" fill-rule="nonzero"/>
</svg>
