<svg width="48.168" height="48.161" viewBox="0 0 48.168 48.161" xmlns="http://www.w3.org/2000/svg">
    <g fill-rule="nonzero" fill="none">
        <ellipse fill="#0F3E7F" cx="24.084" cy="24.081" rx="24.084" ry="24.081"/>
        <path d="M20.422 11.013a2.58 2.58 0 1 1 5.16 0 2.58 2.58 0 0 1-5.16 0zm14.192 22.395-1.935-6.683a3.87 3.87 0 0 0-3.73-2.812h-3.367v-3.87a5.161 5.161 0 0 0 3.342 1.29h2.439a.645.645 0 0 0 .645-.645v-1.29a.645.645 0 0 0-.645-.645h-2.439a2.58 2.58 0 0 1-2.155-1.161l-1.019-1.548a2.58 2.58 0 0 0-2.154-1.161h-.594a2.58 2.58 0 0 0-2.58 2.58v7.095c0 1.069.866 1.935 1.935 1.935h6.103c.867 0 1.63.574 1.87 1.406l1.704 5.87c.08.275.332.464.619.464h1.29a.645.645 0 0 0 .645-.645c.014-.059.023-.12.026-.18zm-10.322-5.625a3.87 3.87 0 1 1-5.16-3.638v-2.683a6.45 6.45 0 0 0 1.721 12.756 6.45 6.45 0 0 0 6.02-6.435h-2.58z" fill="#FFF"/>
    </g>
</svg>
