<svg width="31.825" height="54.181" viewBox="0 0 31.825 54.181" xmlns="http://www.w3.org/2000/svg">
    <g fill="#0F3E7F" fill-rule="nonzero">
        <path d="M25.705 54.181c3.375 0 6.12-2.762 6.12-6.157V6.157C31.825 2.762 29.08 0 25.705 0H6.12C2.746 0 0 2.762 0 6.157v41.867c0 3.395 2.746 6.157 6.12 6.157h19.585zM20.97 2.463l-.816 1.231h-8.483l-.816-1.231H20.97zM2.448 48.024V6.157c0-2.037 1.648-3.694 3.672-3.694h1.793l2.085 3.146c.228.342.61.548 1.018.548h9.793c.409 0 .79-.206 1.018-.548l2.085-3.146h1.793c2.025 0 3.672 1.657 3.672 3.694v41.867c0 2.037-1.647 3.695-3.672 3.695H6.12c-2.024 0-3.672-1.658-3.672-3.695z"/>
        <path d="M16.792 48.161h-2.593c-.716 0-1.297.578-1.297 1.29 0 .712.581 1.29 1.297 1.29h2.593c1.694-.006 1.695-2.573 0-2.58zM19.349 24.914c7.693-.12 6.307 1.257 6.429-6.428 0-.71-.575-1.286-1.286-1.286H19.35c-.711 0-1.286.576-1.286 1.286v5.142c0 .71.575 1.286 1.286 1.286zm1.286-5.142h2.571v2.57h-2.571v-2.57zM7.307 36.954c7.693-.12 6.307 1.258 6.429-6.428 0-.71-.576-1.285-1.286-1.285H7.307c-.71 0-1.286.576-1.286 1.285v5.143c0 .71.576 1.285 1.286 1.285zm1.286-5.142h2.571v2.571H8.593v-2.571zM7.307 24.914c7.693-.12 6.307 1.257 6.429-6.428 0-.71-.576-1.286-1.286-1.286H7.307c-.71 0-1.286.576-1.286 1.286v5.142c0 .71.576 1.286 1.286 1.286zm1.286-5.142h2.571v2.57H8.593v-2.57zM7.292 28.38h2.593c.716 0 1.297-.577 1.297-1.29 0-.711-.581-1.29-1.297-1.29H7.292c-1.694.008-1.695 2.573 0 2.58zM24.508 30.96c-.717 0-1.297.54-1.297 1.205v2.408h-1.296c-1.695.006-1.696 2.402 0 2.408h2.593c.717 0 1.296-.54 1.296-1.204v-3.612c0-.665-.58-1.204-1.296-1.204zM19.21 33.54c.634 0 1.147-.579 1.147-1.293v-1.294c.634 0 1.147-.58 1.147-1.295V27.07c-.006-1.691-2.288-1.694-2.294 0v1.294c-.634 0-1.147.58-1.147 1.294v2.589c0 .714.513 1.294 1.147 1.294zM24.514 25.8c-.713 0-1.29.514-1.29 1.147v1.147c0 .633.577 1.147 1.29 1.147.714 0 1.29-.514 1.29-1.147v-1.147c0-.633-.576-1.146-1.29-1.146z"/>
        <path d="M12.042 27.084c0 .716.578 1.297 1.29 1.297h2.58c.713 0 1.29-.581 1.29-1.297v-2.592c-.007-1.694-2.572-1.696-2.58 0v1.296h-1.29c-.712 0-1.29.58-1.29 1.296zM15.913 22.36a1.29 1.29 0 0 0 1.29-1.29v-2.58a1.29 1.29 0 0 0-2.58 0v2.58c0 .713.577 1.29 1.29 1.29zM14.622 35.69c0 .713.578 1.291 1.29 1.291h2.581a1.29 1.29 0 1 0 0-2.58h-2.58a1.29 1.29 0 0 0-1.29 1.29zM15.913 33.54c.712 0 1.29-.513 1.29-1.146v-1.147c0-.632-.578-1.146-1.29-1.146-.713 0-1.29.514-1.29 1.146v1.147c0 .633.577 1.147 1.29 1.147z"/>
    </g>
</svg>
