<svg width="71.392" height="53.321" viewBox="0 0 71.392 53.321" xmlns="http://www.w3.org/2000/svg">
    <path d="M31.85.866a2.971 2.971 0 0 1 0 4.206l-9.796 9.745h27.284l-9.796-9.745a2.971 2.971 0 0 1 0-4.206 2.986 2.986 0 0 1 4.206 0l14.002 13.95h10.667a2.973 2.973 0 0 1 2.975 2.963 2.973 2.973 0 0 1-2.975 2.962h-.494l-4.616 25.294c-.77 4.206-4.465 7.286-8.779 7.286H16.863c-4.313 0-8.007-3.08-8.778-7.286L3.468 20.741h-.493A2.973 2.973 0 0 1 0 17.779a2.973 2.973 0 0 1 2.975-2.962h10.667L27.643.867a2.986 2.986 0 0 1 4.207 0zM9.462 20.641l4.432 24.231a2.988 2.988 0 0 0 2.932 2.43h37.74a2.985 2.985 0 0 0 2.93-2.43l4.434-24.231H9.462zM21.509 26.7c1.687-.263 3.285.818 3.564 2.424l1.549 8.76c.281 1.576-.858 3.095-2.543 3.358-1.688.262-3.286-.818-3.565-2.424l-1.548-8.76c-.282-1.577.858-3.095 2.543-3.358zm27.514 0c1.685.263 2.825 1.781 2.543 3.358l-1.549 8.76c-.278 1.606-1.877 2.686-3.564 2.424-1.685-.263-2.825-1.782-2.543-3.358l1.549-8.76c.278-1.606 1.876-2.687 3.564-2.424zm-13.327-.04c1.662 0 3.01 1.317 3.01 2.925v8.772c0 1.608-1.348 2.924-3.01 2.924-1.662 0-3.01-1.316-3.01-2.924v-8.772c0-1.608 1.348-2.924 3.01-2.924z" fill="#0F3E7F" fill-rule="evenodd"/>
</svg>
