<svg width="62.79" height="55.041" viewBox="0 0 62.79 55.041" xmlns="http://www.w3.org/2000/svg">
    <g fill-rule="nonzero" fill="none">
        <path d="M38.668 40.421h-3.364c-.496 0-.898.385-.898.86s.402.86.898.86h3.364c.496 0 .898-.385.898-.86s-.402-.86-.898-.86z" fill="#FE2312"/>
        <path d="m58.852 30.642-5.065-1.936-2.583-2.56a.93.93 0 0 0-.598-.267v-2.036a9.475 9.475 0 0 0 2.434-4.749c.217.01.436-.008.652-.051 1.238-.251 2.136-1.39 2.136-2.706v-.672a2.75 2.75 0 0 0-.82-1.96c.822-4.427.146-8.035-1.964-10.45-2.042-2.335-5.33-3.45-9.51-3.227-3.862.207-6.355 1.968-7.145 2.612a4.932 4.932 0 0 0-1.914.644c-1.033.614-2.265 1.905-2.265 4.563 0 2.32.374 4.256.645 5.355-.908.438-1.515 1.388-1.515 2.473v.662c0 1.316.898 2.454 2.136 2.705.216.044.436.062.653.052a9.476 9.476 0 0 0 2.433 4.749v2.036a.93.93 0 0 0-.598.267l-2.583 2.56-5.065 1.935a6.18 6.18 0 0 0-1.244.646.917.917 0 0 0-.247 1.28.932.932 0 0 0 1.292.244c.27-.181.562-.333.868-.45l4.701-1.796 3.595 5.342a2.665 2.665 0 0 0 2.225 1.179c.463 0 .912-.121 1.31-.344l-.772 17.337a.925.925 0 0 0 .93.962.927.927 0 0 0 .929-.881l.715-16.092h1.932l.716 16.092a.927.927 0 0 0 .928.881h.042a.925.925 0 0 0 .888-.962l-.771-17.337a2.674 2.674 0 0 0 1.575.33 2.665 2.665 0 0 0 1.96-1.165l3.594-5.342 4.7 1.796c.66.252 1.228.654 1.674 1.156l-3.216 3.187a6.028 6.028 0 0 0-1.802 4.31V54.12c0 .509.416.921.93.921s.93-.412.93-.921V41.014c0-1.136.447-2.204 1.257-3.007l2.823-2.797c.113.412.166.846.148 1.288l-.72 17.584a.925.925 0 0 0 .93.96.926.926 0 0 0 .929-.885l.72-17.584a6.093 6.093 0 0 0-3.933-5.931zM35.95 18.714a1.808 1.808 0 0 0-1.884-1.463.805.805 0 0 1-.217-.015c-.37-.074-.648-.461-.648-.899v-.662c0-.427.288-.812.656-.877a.812.812 0 0 1 .796.303 1.303 1.303 0 0 0 1.783.277A6.725 6.725 0 0 0 37.96 13.9a.916.916 0 0 0-.191-1.29.936.936 0 0 0-1.302.19 4.91 4.91 0 0 1-.724.776 2.67 2.67 0 0 0-1.009-.534 21.017 21.017 0 0 1-.664-5.195c0-1.412.439-2.404 1.305-2.948.676-.425 1.391-.442 1.39-.442.239 0 .47-.093.643-.255.022-.02 2.309-2.123 6.225-2.333 3.585-.192 6.352.705 8.003 2.593 1.664 1.904 2.218 4.827 1.617 8.485-.25-.01-.522.01-.794.054l-.874-2.08a.933.933 0 0 0-1.094-.537c-.086.023-8.677 2.18-12.279-2.263a.936.936 0 0 0-1.307-.141.916.916 0 0 0-.143 1.296c3.678 4.537 10.977 3.55 13.406 3.069l.676 1.608a1.532 1.532 0 0 0 1.767.897c.3-.07.588-.071.696-.05.376.074.66.446.66.865v.672c0 .438-.28.824-.65.9a.796.796 0 0 1-.216.014 1.809 1.809 0 0 0-1.883 1.463c-.677 3.65-3.888 6.3-7.635 6.3s-6.958-2.65-7.634-6.3zm4.126 16.293a.803.803 0 0 1-.653.231.8.8 0 0 1-.594-.353l-3.621-5.382 1.456-1.443 5.56 4.82-2.148 2.127zm2.624 1.218.057-1.267.827-.82.827.82.056 1.267H42.7zm.884-4.615-5.162-4.476V25.37a9.663 9.663 0 0 0 5.162 1.487 9.663 9.663 0 0 0 5.162-1.487v1.764l-5.162 4.476zm4.755 3.275a.8.8 0 0 1-.594.353.803.803 0 0 1-.653-.231l-2.147-2.128 5.559-4.82 1.456 1.444-3.62 5.382z" stroke="#0F3E7F" fill="#0F3E7F"/>
        <path d="m29.815 35.472-4.59-1.964-2.51-2.46a.943.943 0 0 0-.604-.268v-1.45c2.144-1.382 3.714-3.58 4.218-6.198.247.011.496-.012.742-.069 1.203-.279 2.076-1.41 2.076-2.687v-.672c0-.934-.472-1.774-1.205-2.267a10.23 10.23 0 0 0 .326-2.554c0-3.818-2.106-7.182-5.28-9.113C22.955 2.583 20.18 0 16.772 0c-3.407 0-6.182 2.583-6.216 5.77-3.173 1.931-5.279 5.295-5.279 9.113 0 .86.11 1.713.323 2.547a2.739 2.739 0 0 0-1.202 2.284v.662c0 1.278.873 2.408 2.076 2.687.245.057.495.08.742.07.504 2.618 2.074 4.815 4.218 6.197v1.45a.943.943 0 0 0-.604.267l-2.51 2.46-4.59 1.965c-2.336 1-3.833 3.348-3.725 5.845l.556 12.842a.932.932 0 0 0 .938.882h.04a.93.93 0 0 0 .9-.96l-.555-12.842a4.179 4.179 0 0 1 .596-2.322l2.468 2.903c.78.918 1.209 2.08 1.209 3.275v9.025c0 .509.42.921.94.921s.94-.412.94-.921v-9.025a6.889 6.889 0 0 0-1.645-4.455L3.77 37.554c.223-.15.46-.284.713-.393l4.001-1.712 2.827 4.5a1.82 1.82 0 0 0 1.55.848c.43 0 .849-.15 1.18-.427l1.793-1.499v15.248c0 .51.42.922.94.922.519 0 .94-.412.94-.922V38.871l1.791 1.499a1.839 1.839 0 0 0 1.464.405 1.82 1.82 0 0 0 1.267-.826l2.827-4.5 4.001 1.713c.253.108.49.241.713.392l-2.623 3.086a6.889 6.889 0 0 0-1.645 4.455v9.025c0 .509.421.921.94.921.52 0 .94-.412.94-.921v-9.025c0-1.194.43-2.357 1.21-3.275l2.467-2.903c.413.691.632 1.494.596 2.322l-.555 12.842a.93.93 0 0 0 .9.96h.04c.501 0 .917-.387.939-.882l.555-12.842c.108-2.496-1.39-4.845-3.725-5.845zM16.773 1.843c2 0 3.687 1.251 4.186 2.946a12.048 12.048 0 0 0-4.186-.744c-1.477 0-2.89.264-4.187.744.499-1.695 2.186-2.946 4.187-2.946zm-7.717 20.91a1.824 1.824 0 0 0-1.903-1.463.828.828 0 0 1-.246-.02c-.359-.084-.629-.468-.629-.894v-.662c0-.428.291-.813.663-.877a.825.825 0 0 1 .805.302c.172.22.403.378.666.456.385.114.81.047 1.136-.179a6.76 6.76 0 0 0 1.522-1.451.91.91 0 0 0-.188-1.29.953.953 0 0 0-1.316.183 4.926 4.926 0 0 1-.717.756 2.72 2.72 0 0 0-1.42-.612 8.425 8.425 0 0 1-.271-2.118c0-4.96 4.313-8.995 9.615-8.995 5.301 0 9.614 4.035 9.614 8.995 0 .712-.091 1.42-.27 2.114-.248.02-.5.059-.732.118l-.707-.57a1.829 1.829 0 0 0-1.255-.403c-1.382.08-8.459.263-12.09-3.997a.953.953 0 0 0-1.324-.116.91.91 0 0 0-.119 1.298c1.791 2.101 4.418 3.522 7.807 4.223 2.595.537 4.902.485 5.805.434l1.103.889c.304.245.73.28 1.069.085.16-.085.693-.166.926-.12.38.074.667.445.667.865v.672c0 .426-.27.81-.629.893a.82.82 0 0 1-.245.02 1.826 1.826 0 0 0-1.904 1.463c-.684 3.651-3.93 6.3-7.716 6.3-3.788 0-7.033-2.649-7.717-6.3zm3.818 16.17-2.828-4.5 1.449-1.42 3.893 3.816-2.514 2.104zm3.899-3.354-3.458-3.39v-1.906a9.876 9.876 0 0 0 3.458.623c1.212 0 2.378-.22 3.457-.623v1.906l-3.457 3.39zm3.898 3.354-2.514-2.104 3.893-3.817 1.449 1.42-2.828 4.5z" stroke="#0F3E7F" fill="#0F3E7F"/>
        <path d="M13.728 44.721h-2.512c-.494 0-.894.385-.894.86s.4.86.894.86h2.512c.494 0 .894-.385.894-.86s-.4-.86-.894-.86z" fill="#FE2312"/>
    </g>
</svg>
